<svg width="613" height="192" viewBox="0 0 613 192" fill="none" xmlns="http://www.w3.org/2000/svg">
<mask id="mask0_8_24" style="mask-type:alpha" maskUnits="userSpaceOnUse" x="0" y="0" width="613" height="192">
<path d="M16.813 75.2053H45.8266V84.025H5.99237V0.953477H16.813V75.2053Z" fill="black"/>
<path d="M106.308 65.5514H70.16L63.5012 84.025H52.086L82.0508 1.43021H94.5362L124.382 84.025H112.967L106.308 65.5514ZM103.216 56.7317L88.2341 14.7789L73.2516 56.7317H103.216Z" fill="black"/>
<path d="M202.603 84.025H191.783L148.262 17.8777V84.025H137.442V0.834294H148.262L191.783 66.8624V0.834294H202.603V84.025Z" fill="black"/>
<path d="M283.832 25.0287C281.533 20.1819 278.204 16.4474 273.844 13.8254C269.484 11.1239 264.411 9.77312 258.624 9.77312C252.837 9.77312 247.605 11.1239 242.928 13.8254C238.33 16.4474 234.684 20.2613 231.988 25.2671C229.372 30.1934 228.064 35.9142 228.064 42.4296C228.064 48.945 229.372 54.6659 231.988 59.5922C234.684 64.5185 238.33 68.3324 242.928 71.0339C247.605 73.6559 252.837 74.9669 258.624 74.9669C266.71 74.9669 273.368 72.5435 278.6 67.6967C283.832 62.8499 286.884 56.2947 287.756 48.0313H254.7V39.2116H299.29V47.5545C298.656 54.3878 296.516 60.6648 292.869 66.3857C289.223 72.0271 284.427 76.5163 278.481 79.8535C272.536 83.1112 265.917 84.7401 258.624 84.7401C250.934 84.7401 243.919 82.9523 237.577 79.3768C231.235 75.7218 226.202 70.6763 222.476 64.2404C218.829 57.8044 217.006 50.5342 217.006 42.4296C217.006 34.3251 218.829 27.0548 222.476 20.6189C226.202 14.1035 231.235 9.05801 237.577 5.48248C243.919 1.82749 250.934 0 258.624 0C267.423 0 275.192 2.18505 281.93 6.55514C288.747 10.9252 293.702 17.0831 296.793 25.0287H283.832Z" fill="black"/>
<path d="M324.18 0.953477V53.5138C324.18 60.9032 325.964 66.3857 329.531 69.9612C333.178 73.5367 338.211 75.3245 344.633 75.3245C350.974 75.3245 355.929 73.5367 359.496 69.9612C363.143 66.3857 364.966 60.9032 364.966 53.5138V0.953477H375.786V53.3946C375.786 60.3073 374.399 66.1473 371.625 70.9147C368.85 75.6026 365.085 79.0987 360.328 81.4029C355.651 83.7071 350.38 84.8592 344.514 84.8592C338.647 84.8592 333.336 83.7071 328.58 81.4029C323.903 79.0987 320.177 75.6026 317.403 70.9147C314.707 66.1473 313.36 60.3073 313.36 53.3946V0.953477H324.18Z" fill="black"/>
<path d="M442.827 65.5514H406.679L400.02 84.025H388.605L418.57 1.43021H431.056L460.901 84.025H449.486L442.827 65.5514ZM439.736 56.7317L424.753 14.7789L409.771 56.7317H439.736Z" fill="black"/>
<path d="M536.744 25.0287C534.446 20.1819 531.116 16.4474 526.756 13.8254C522.396 11.1239 517.323 9.77312 511.536 9.77312C505.749 9.77312 500.517 11.1239 495.84 13.8254C491.242 16.4474 487.596 20.2613 484.9 25.2671C482.284 30.1934 480.976 35.9142 480.976 42.4296C480.976 48.945 482.284 54.6659 484.9 59.5922C487.596 64.5185 491.242 68.3324 495.84 71.0339C500.517 73.6559 505.749 74.9669 511.536 74.9669C519.622 74.9669 526.28 72.5435 531.512 67.6967C536.744 62.8499 539.796 56.2947 540.668 48.0313H507.612V39.2116H552.202V47.5545C551.568 54.3878 549.428 60.6648 545.781 66.3857C542.135 72.0271 537.339 76.5163 531.393 79.8535C525.448 83.1112 518.829 84.7401 511.536 84.7401C503.846 84.7401 496.831 82.9523 490.489 79.3768C484.147 75.7218 479.114 70.6763 475.388 64.2404C471.741 57.8044 469.918 50.5342 469.918 42.4296C469.918 34.3251 471.741 27.0548 475.388 20.6189C479.114 14.1035 484.147 9.05801 490.489 5.48248C496.831 1.82749 503.846 0 511.536 0C520.335 0 528.104 2.18505 534.842 6.55514C541.659 10.9252 546.614 17.0831 549.705 25.0287H536.744Z" fill="black"/>
<path d="M577.33 9.77312V37.5431H607.533V46.4819H577.33V75.0861H611.1V84.025H566.51V0.834294H611.1V9.77312H577.33Z" fill="black"/>
<path d="M47.7059 120.68V128.177H28.5023V191.291H19.3047V128.177H0V120.68H47.7059Z" fill="black"/>
<path d="M96.121 191.291L79.343 162.418H68.2251V191.291H59.0276V120.68H81.7688C87.0919 120.68 91.5727 121.592 95.2113 123.415C98.9173 125.239 101.68 127.704 103.499 130.811C105.319 133.918 106.228 137.463 106.228 141.448C106.228 146.311 104.813 150.599 101.983 154.314C99.2205 158.028 95.0429 160.494 89.4502 161.709L107.138 191.291H96.121ZM68.2251 155.023H81.7688C86.755 155.023 90.4946 153.807 92.9877 151.376C95.4808 148.877 96.7274 145.568 96.7274 141.448C96.7274 137.261 95.4808 134.019 92.9877 131.723C90.562 129.426 86.8223 128.278 81.7688 128.278H68.2251V155.023Z" fill="black"/>
<path d="M162.161 175.588H131.435L125.775 191.291H116.072L141.543 121.085H152.155L177.524 191.291H167.821L162.161 175.588ZM159.533 168.092L146.798 132.432L134.063 168.092H159.533Z" fill="black"/>
<path d="M244.012 191.291H234.815L197.822 135.066V191.291H188.625V120.579H197.822L234.815 176.703V120.579H244.012V191.291Z" fill="black"/>
<path d="M282.028 192C277.378 192 273.201 191.19 269.495 189.569C265.856 187.88 262.993 185.584 260.904 182.68C258.815 179.708 257.737 176.297 257.669 172.448H267.473C267.81 175.757 269.158 178.56 271.516 180.856C273.942 183.085 277.446 184.199 282.028 184.199C286.408 184.199 289.844 183.119 292.337 180.958C294.898 178.729 296.178 175.892 296.178 172.448C296.178 169.746 295.437 167.551 293.954 165.863C292.472 164.174 290.619 162.891 288.395 162.013C286.172 161.135 283.173 160.19 279.4 159.177C274.751 157.961 271.011 156.745 268.181 155.53C265.418 154.314 263.026 152.423 261.005 149.856C259.051 147.222 258.074 143.71 258.074 139.321C258.074 135.471 259.051 132.06 261.005 129.089C262.959 126.117 265.688 123.821 269.192 122.2C272.763 120.579 276.839 119.768 281.421 119.768C288.025 119.768 293.415 121.423 297.593 124.732C301.838 128.042 304.23 132.432 304.769 137.902H294.662C294.325 135.201 292.91 132.837 290.417 130.811C287.924 128.717 284.622 127.67 280.512 127.67C276.671 127.67 273.538 128.683 271.112 130.709C268.686 132.668 267.473 135.437 267.473 139.017C267.473 141.583 268.181 143.677 269.596 145.298C271.078 146.919 272.864 148.168 274.953 149.046C277.109 149.856 280.107 150.802 283.948 151.883C288.597 153.166 292.337 154.449 295.167 155.732C297.997 156.948 300.423 158.873 302.444 161.507C304.466 164.073 305.476 167.585 305.476 172.043C305.476 175.487 304.567 178.729 302.747 181.768C300.928 184.807 298.233 187.272 294.662 189.163C291.091 191.054 286.879 192 282.028 192Z" fill="black"/>
<path d="M328.209 183.794H352.87V191.291H319.011V120.68H328.209V183.794Z" fill="black"/>
<path d="M404.28 175.588H373.554L367.894 191.291H358.191L383.661 121.085H394.274L419.643 191.291H409.94L404.28 175.588ZM401.652 168.092L388.917 132.432L376.182 168.092H401.652Z" fill="black"/>
<path d="M474.103 120.68V128.177H454.899V191.291H445.702V128.177H426.397V120.68H474.103Z" fill="black"/>
<path d="M517.363 192C510.827 192 504.864 190.48 499.474 187.441C494.083 184.334 489.804 180.046 486.638 174.575C483.538 169.037 481.988 162.824 481.988 155.935C481.988 149.046 483.538 142.866 486.638 137.396C489.804 131.858 494.083 127.569 499.474 124.53C504.864 121.423 510.827 119.87 517.363 119.87C523.967 119.87 529.964 121.423 535.354 124.53C540.745 127.569 544.99 131.824 548.089 137.294C551.189 142.765 552.739 148.978 552.739 155.935C552.739 162.891 551.189 169.105 548.089 174.575C544.99 180.046 540.745 184.334 535.354 187.441C529.964 190.48 523.967 192 517.363 192ZM517.363 183.997C522.282 183.997 526.696 182.849 530.604 180.552C534.579 178.256 537.679 174.98 539.902 170.726C542.193 166.471 543.339 161.54 543.339 155.935C543.339 150.262 542.193 145.331 539.902 141.144C537.679 136.889 534.613 133.614 530.705 131.317C526.797 129.021 522.35 127.873 517.363 127.873C512.377 127.873 507.93 129.021 504.022 131.317C500.114 133.614 497.014 136.889 494.723 141.144C492.5 145.331 491.388 150.262 491.388 155.935C491.388 161.54 492.5 166.471 494.723 170.726C497.014 174.98 500.114 178.256 504.022 180.552C507.997 182.849 512.445 183.997 517.363 183.997Z" fill="black"/>
<path d="M601.974 191.291L585.196 162.418H574.078V191.291H564.881V120.68H587.622C592.945 120.68 597.426 121.592 601.064 123.415C604.77 125.239 607.533 127.704 609.352 130.811C611.172 133.918 612.081 137.463 612.081 141.448C612.081 146.311 610.666 150.599 607.836 154.314C605.074 158.028 600.896 160.494 595.303 161.709L612.991 191.291H601.974ZM574.078 155.023H587.622C592.608 155.023 596.348 153.807 598.841 151.376C601.334 148.877 602.58 145.568 602.58 141.448C602.58 137.261 601.334 134.019 598.841 131.723C596.415 129.426 592.675 128.278 587.622 128.278H574.078V155.023Z" fill="black"/>
</mask>
<g mask="url(#mask0_8_24)">
<rect x="-79.2661" y="-88.0735" width="813.798" height="376.954" fill="white"/>
</g>
</svg>
