<svg width="348" height="109" viewBox="0 0 348 109" fill="none" xmlns="http://www.w3.org/2000/svg">
<path d="M9.54488 42.6947H26.0161V47.7017H3.40192V0.541297H9.54488V42.6947Z" fill="black"/>
<path d="M60.352 37.2141H39.8304L36.0501 47.7017H29.5696L46.5809 0.811945H53.669L70.6128 47.7017H64.1323L60.352 37.2141ZM58.5969 32.2071L50.0912 8.39008L41.5856 32.2071H58.5969Z" fill="black"/>
<path d="M115.02 47.7017H108.877L84.1697 10.1493V47.7017H78.0267V0.473636H84.1697L108.877 37.9584V0.473636H115.02V47.7017Z" fill="black"/>
<path d="M161.134 14.209C159.829 11.4574 157.939 9.33735 155.464 7.84878C152.988 6.31511 150.108 5.54828 146.823 5.54828C143.538 5.54828 140.567 6.31511 137.912 7.84878C135.302 9.33735 133.232 11.5025 131.702 14.3443C130.217 17.141 129.474 20.3888 129.474 24.0877C129.474 27.7865 130.217 31.0343 131.702 33.831C133.232 36.6277 135.302 38.7928 137.912 40.3265C140.567 41.8151 143.538 42.5594 146.823 42.5594C151.413 42.5594 155.194 41.1836 158.164 38.432C161.134 35.6804 162.867 31.959 163.362 27.2678H144.595V22.2608H169.91V26.9971C169.55 30.8764 168.335 34.4399 166.264 37.6877C164.194 40.8904 161.472 43.439 158.096 45.3335C154.721 47.1829 150.963 48.1076 146.823 48.1076C142.458 48.1076 138.475 47.0927 134.874 45.0629C131.274 42.9879 128.417 40.1235 126.301 36.4698C124.231 32.816 123.196 28.6887 123.196 24.0877C123.196 19.4866 124.231 15.3593 126.301 11.7055C128.417 8.00666 131.274 5.14231 134.874 3.11245C138.475 1.03748 142.458 0 146.823 0C151.818 0 156.229 1.24047 160.054 3.72141C163.924 6.20235 166.737 9.69821 168.492 14.209H161.134Z" fill="black"/>
<path d="M184.04 0.541297V30.3802C184.04 34.5753 185.052 37.6877 187.078 39.7176C189.148 41.7474 192.005 42.7623 195.651 42.7623C199.251 42.7623 202.064 41.7474 204.089 39.7176C206.159 37.6877 207.194 34.5753 207.194 30.3802V0.541297H213.337V30.3126C213.337 34.2369 212.55 37.5524 210.974 40.2589C209.399 42.9202 207.262 44.905 204.561 46.2131C201.906 47.5212 198.913 48.1753 195.583 48.1753C192.253 48.1753 189.238 47.5212 186.538 46.2131C183.882 44.905 181.767 42.9202 180.192 40.2589C178.662 37.5524 177.897 34.2369 177.897 30.3126V0.541297H184.04Z" fill="black"/>
<path d="M251.397 37.2141H230.875L227.095 47.7017H220.614L237.626 0.811945H244.714L261.658 47.7017H255.177L251.397 37.2141ZM249.642 32.2071L241.136 8.39008L232.63 32.2071H249.642Z" fill="black"/>
<path d="M304.714 14.209C303.409 11.4574 301.519 9.33735 299.044 7.84878C296.569 6.31511 293.688 5.54828 290.403 5.54828C287.118 5.54828 284.148 6.31511 281.492 7.84878C278.882 9.33735 276.812 11.5025 275.282 14.3443C273.797 17.141 273.054 20.3888 273.054 24.0877C273.054 27.7865 273.797 31.0343 275.282 33.831C276.812 36.6277 278.882 38.7928 281.492 40.3265C284.148 41.8151 287.118 42.5594 290.403 42.5594C294.993 42.5594 298.774 41.1836 301.744 38.432C304.714 35.6804 306.447 31.959 306.942 27.2678H288.176V22.2608H313.49V26.9971C313.13 30.8764 311.915 34.4399 309.845 37.6877C307.774 40.8904 305.052 43.439 301.677 45.3335C298.301 47.1829 294.543 48.1076 290.403 48.1076C286.038 48.1076 282.055 47.0927 278.455 45.0629C274.854 42.9879 271.997 40.1235 269.882 36.4698C267.811 32.816 266.776 28.6887 266.776 24.0877C266.776 19.4866 267.811 15.3593 269.882 11.7055C271.997 8.00666 274.854 5.14231 278.455 3.11245C282.055 1.03748 286.038 0 290.403 0C295.399 0 299.809 1.24047 303.634 3.72141C307.504 6.20235 310.317 9.69821 312.072 14.209H304.714Z" fill="black"/>
<path d="M327.755 5.54828V21.3135H344.901V26.3882H327.755V42.627H346.927V47.7017H321.612V0.473636H346.927V5.54828H327.755Z" fill="black"/>
<path d="M27.0831 68.5111V72.767H16.181V108.597H10.9595V72.767H0V68.5111H27.0831Z" fill="black"/>
<path d="M54.5687 108.597L45.0437 92.2063H38.732V108.597H33.5104V68.5111H46.4208C49.4428 68.5111 51.9866 69.0287 54.0523 70.0639C56.1562 71.0992 57.7245 72.4986 58.7574 74.2624C59.7902 76.0261 60.3066 78.039 60.3066 80.3012C60.3066 83.0618 59.5033 85.4965 57.8967 87.6053C56.3283 89.7141 53.9566 91.1136 50.7816 91.8037L60.823 108.597H54.5687ZM38.732 88.0079H46.4208C49.2515 88.0079 51.3746 87.3177 52.7899 85.9374C54.2053 84.5188 54.9129 82.64 54.9129 80.3012C54.9129 77.924 54.2053 76.0836 52.7899 74.78C51.4128 73.4764 49.2898 72.8245 46.4208 72.8245H38.732V88.0079Z" fill="black"/>
<path d="M92.0603 99.683H74.6169L71.4037 108.597H65.8953L80.3549 68.7411H86.3797L100.782 108.597H95.2735L92.0603 99.683ZM90.5684 95.427L83.3386 75.1826L76.1088 95.427H90.5684Z" fill="black"/>
<path d="M138.528 108.597H133.306L112.305 76.6779V108.597H107.084V68.4536H112.305L133.306 100.316V68.4536H138.528V108.597Z" fill="black"/>
<path d="M160.109 109C157.47 109 155.098 108.54 152.994 107.62C150.929 106.661 149.303 105.358 148.117 103.709C146.931 102.022 146.319 100.086 146.281 97.9001H151.847C152.038 99.7788 152.803 101.37 154.142 102.674C155.519 103.939 157.508 104.572 160.109 104.572C162.596 104.572 164.547 103.958 165.962 102.731C167.416 101.466 168.143 99.8555 168.143 97.9001C168.143 96.3664 167.722 95.1203 166.88 94.1617C166.039 93.2032 164.987 92.4747 163.724 91.9763C162.462 91.4778 160.76 90.941 158.618 90.3659C155.978 89.6758 153.855 88.9856 152.249 88.2955C150.68 87.6053 149.322 86.5317 148.175 85.0747C147.065 83.5794 146.511 81.5856 146.511 79.0934C146.511 76.9079 147.065 74.9717 148.175 73.2847C149.284 71.5976 150.833 70.294 152.822 69.3738C154.85 68.4536 157.164 67.9935 159.765 67.9935C163.514 67.9935 166.574 68.9329 168.946 70.8116C171.356 72.6904 172.714 75.1826 173.02 78.2883H167.282C167.091 76.7546 166.287 75.4126 164.872 74.2624C163.457 73.0738 161.582 72.4795 159.249 72.4795C157.068 72.4795 155.29 73.0546 153.913 74.2048C152.535 75.3168 151.847 76.8888 151.847 78.9209C151.847 80.3779 152.249 81.5665 153.052 82.4867C153.893 83.4069 154.907 84.1162 156.093 84.6146C157.317 85.0747 159.019 85.6115 161.2 86.225C163.839 86.9535 165.962 87.682 167.569 88.4105C169.175 89.1006 170.553 90.1934 171.7 91.6887C172.848 93.1457 173.422 95.1395 173.422 97.67C173.422 99.6254 172.905 101.466 171.872 103.191C170.839 104.917 169.309 106.316 167.282 107.39C165.255 108.463 162.864 109 160.109 109Z" fill="black"/>
<path d="M186.327 104.341H200.327V108.597H181.105V68.5111H186.327V104.341Z" fill="black"/>
<path d="M229.513 99.683H212.07L208.856 108.597H203.348L217.808 68.7411H223.832L238.235 108.597H232.726L229.513 99.683ZM228.021 95.427L220.791 75.1826L213.562 95.427H228.021Z" fill="black"/>
<path d="M269.152 68.5111V72.767H258.25V108.597H253.029V72.767H242.069V68.5111H269.152Z" fill="black"/>
<path d="M293.712 109C290.001 109 286.616 108.137 283.555 106.412C280.495 104.648 278.066 102.214 276.268 99.1078C274.509 95.9638 273.629 92.4364 273.629 88.5255C273.629 84.6146 274.509 81.1064 276.268 78.0007C278.066 74.8567 280.495 72.422 283.555 70.6966C286.616 68.9329 290.001 68.051 293.712 68.051C297.46 68.051 300.865 68.9329 303.925 70.6966C306.985 72.422 309.395 74.8375 311.155 77.9432C312.914 81.0489 313.794 84.5763 313.794 88.5255C313.794 92.4747 312.914 96.0022 311.155 99.1078C309.395 102.214 306.985 104.648 303.925 106.412C300.865 108.137 297.46 109 293.712 109ZM293.712 104.457C296.504 104.457 299.01 103.805 301.228 102.501C303.485 101.197 305.245 99.3379 306.507 96.9224C307.808 94.5068 308.458 91.7079 308.458 88.5255C308.458 85.3048 307.808 82.5058 306.507 80.1287C305.245 77.7131 303.504 75.8535 301.286 74.5499C299.067 73.2463 296.542 72.5945 293.712 72.5945C290.881 72.5945 288.356 73.2463 286.137 74.5499C283.919 75.8535 282.159 77.7131 280.859 80.1287C279.596 82.5058 278.965 85.3048 278.965 88.5255C278.965 91.7079 279.596 94.5068 280.859 96.9224C282.159 99.3379 283.919 101.197 286.137 102.501C288.394 103.805 290.919 104.457 293.712 104.457Z" fill="black"/>
<path d="M341.746 108.597L332.221 92.2063H325.909V108.597H320.687V68.5111H333.598C336.62 68.5111 339.164 69.0287 341.229 70.0639C343.333 71.0992 344.902 72.4986 345.934 74.2624C346.967 76.0261 347.484 78.039 347.484 80.3012C347.484 83.0618 346.68 85.4965 345.074 87.6053C343.505 89.7141 341.134 91.1136 337.959 91.8037L348 108.597H341.746ZM325.909 88.0079H333.598C336.428 88.0079 338.552 87.3177 339.967 85.9374C341.382 84.5188 342.09 82.64 342.09 80.3012C342.09 77.924 341.382 76.0836 339.967 74.78C338.59 73.4764 336.467 72.8245 333.598 72.8245H325.909V88.0079Z" fill="black"/>
</svg>
